<?xml version="1.0" encoding="UTF-8"?>
<!DOCTYPE svg PUBLIC "-//W3C//DTD SVG 1.1//EN" "http://www.w3.org/Graphics/SVG/1.1/DTD/svg11.dtd">
<svg xmlns="http://www.w3.org/2000/svg" version="1.1" width="2440px" height="1056px" style="shape-rendering:geometricPrecision; text-rendering:geometricPrecision; image-rendering:optimizeQuality; fill-rule:evenodd; clip-rule:evenodd" xmlns:xlink="http://www.w3.org/1999/xlink">
<g><path style="opacity:1" fill="#fefefe" d="M -0.5,-0.5 C 812.833,-0.5 1626.17,-0.5 2439.5,-0.5C 2439.5,351.5 2439.5,703.5 2439.5,1055.5C 1626.17,1055.5 812.833,1055.5 -0.5,1055.5C -0.5,703.5 -0.5,351.5 -0.5,-0.5 Z"/></g>
<g><path style="opacity:1" fill="#fdb800" d="M 16.5,16.5 C 203.168,16.1667 389.835,16.5 576.5,17.5C 665.135,358.037 753.468,698.703 841.5,1039.5C 566.501,1040.5 291.501,1040.83 16.5,1040.5C 16.5,699.167 16.5,357.833 16.5,16.5 Z"/></g>
<g><path style="opacity:1" fill="#00f0fe" d="M 1857.5,33.5 C 2044.17,33.5 2230.83,33.5 2417.5,33.5C 2417.5,363.5 2417.5,693.5 2417.5,1023.5C 2142.83,1023.5 1868.17,1023.5 1593.5,1023.5C 1680.84,693.466 1768.84,363.466 1857.5,33.5 Z"/></g>
</svg>
